<?xml version="1.0" encoding="UTF-8" standalone="no"?><!DOCTYPE svg PUBLIC "-//W3C//DTD SVG 1.1//EN" "http://www.w3.org/Graphics/SVG/1.1/DTD/svg11.dtd"><svg width="100%" height="100%" viewBox="0 0 480 475" version="1.1" xmlns="http://www.w3.org/2000/svg" xmlns:xlink="http://www.w3.org/1999/xlink" xml:space="preserve" xmlns:serif="http://www.serif.com/" style="fill-rule:evenodd;clip-rule:evenodd;stroke-linejoin:round;stroke-miterlimit:2;"><rect id="Artboard1" x="0" y="0" width="479.167" height="479.167" style="fill:none;"/><clipPath id="_clip1"><rect x="0" y="0" width="479.167" height="479.167"/></clipPath><g clip-path="url(#_clip1)"><g><rect x="25" y="62.083" width="2500" height="476.25" style="fill:none;fill-rule:nonzero;"/><path d="M283.75,348.75c0,-0 2.083,-7.917 16.667,-14.167c7.916,-4.166 15,-9.166 21.666,-14.583c20,-17.5 43.75,-45.833 51.25,-75c10,-39.583 12.084,-70.833 1.25,-122.083c-10.833,-51.667 -33.333,-117.084 -33.333,-117.084c0,0 -29.167,-5.833 -101.25,-5.833l-0.833,-0c-72.084,-0 -101.25,5.833 -101.25,5.833c-0,0 -22.917,65.834 -33.334,117.084c-10.833,51.666 -8.75,82.5 1.25,122.083c7.084,28.75 30.834,57.5 51.25,75c6.667,5.833 14.167,10.417 21.667,14.583c14.167,6.25 16.667,14.167 16.667,14.167c-0,-0 16.666,41.25 23.75,64.583c7.083,23.334 -17.917,30.834 -17.917,30.834c0,-0 -69.167,17.916 -71.667,18.333c-4.583,1.25 -5.416,8.333 -1.666,9.583c19.583,3.334 101.666,4.167 111.25,4.584l0.833,-0c9.583,-0 92.083,-1.25 111.25,-4.584c3.75,-0.833 2.917,-8.333 -1.667,-9.583c-2.5,-0.417 -71.666,-18.333 -71.666,-18.333c-0,-0 -25,-7.084 -17.917,-30.834c7.5,-22.916 23.75,-64.583 23.75,-64.583" style="fill:#ffc107;fill-rule:nonzero;"/></g></g></svg>