<svg id="Layer_1" data-name="Layer 1" xmlns="http://www.w3.org/2000/svg" viewBox="0 0 812.08 521.44"><title>Ollie_Logo_RGB</title><path d="M419,445.82a72,72,0,1,1-72-72A72,72,0,0,1,419,445.82Zm333.82-72a72,72,0,1,0,72,72A72,72,0,0,0,752.86,373.84Zm203,72c0,112.05-90.92,202.89-203,202.89a202.11,202.11,0,0,1-137.85-54L550,665.4,485,594.63a202.12,202.12,0,0,1-137.89,54.08c-112,0-202.89-90.84-202.89-202.89a202.35,202.35,0,0,1,66.18-149.95L144,223.63H291.52a459.76,459.76,0,0,1,517.34,0H956l-66.39,72.24A202.35,202.35,0,0,1,955.83,445.82Zm-471.46,0A137.31,137.31,0,1,0,347.06,583.13,137.3,137.3,0,0,0,484.37,445.82Zm218-205a396.23,396.23,0,0,0-304.77,0C484.28,274,550,351.5,550,441.86,550,351.51,615.71,274,702.37,240.83Zm187.8,205A137.31,137.31,0,1,0,752.86,583.13,137.31,137.31,0,0,0,890.17,445.82Z" transform="translate(-143.96 -143.96)"/></svg>