<?xml version="1.0" encoding="UTF-8" standalone="no"?><!DOCTYPE svg PUBLIC "-//W3C//DTD SVG 1.1//EN" "http://www.w3.org/Graphics/SVG/1.1/DTD/svg11.dtd"><svg width="100%" height="100%" viewBox="0 0 1459 1459" version="1.1" xmlns="http://www.w3.org/2000/svg" xmlns:xlink="http://www.w3.org/1999/xlink" xml:space="preserve" xmlns:serif="http://www.serif.com/" style="fill-rule:evenodd;clip-rule:evenodd;stroke-linejoin:round;stroke-miterlimit:2;"><rect id="Artboard1" x="0" y="0" width="1458.33" height="1458.33" style="fill:none;"/><g><g><path d="M669.519,806.365l-347.5,485.417c-17.917,25 -47.917,37.916 -77.917,34.166c-34.583,-4.166 -82.083,-17.083 -130.833,-52.5c-49.167,-35.416 -76.25,-76.25 -91.667,-107.5c-13.333,-27.5 -10.416,-60 7.084,-85l347.5,-485.416c16.666,-22.917 38.333,-42.084 63.333,-55.417l68.333,-36.25c13.75,-7.083 25.834,-17.083 36.25,-28.333c33.334,-37.5 122.084,-136.25 280.417,-295.834l2.917,-12.5c0.833,-2.916 2.916,-5.416 5.833,-5.833l8.75,-2.083c3.75,-0.834 6.25,-4.584 5.833,-8.334l-0.833,-10.833c-0.417,-4.583 2.917,-8.333 7.5,-8.333c10.417,-0.417 30.833,2.916 59.583,23.333c28.75,20.833 38.334,39.167 41.25,49.167c1.25,4.166 -1.25,8.75 -5.833,10l-10.417,2.5c-3.75,0.833 -6.25,4.583 -6.25,8.333l0.834,9.167c0.416,2.916 -1.25,5.833 -3.75,7.5l-11.25,6.666c-100,200.834 -165,317.084 -190,360.834c-7.917,13.333 -12.917,28.333 -15.417,43.75l-12.083,76.666c-4.167,26.667 -15,53.334 -31.667,76.667Zm760,274.167l-347.5,-485.417c-16.667,-22.917 -38.333,-42.083 -63.333,-55.417l-68.334,-36.25c-13.75,-7.083 -25.833,-17.083 -36.25,-28.333c-8.333,-9.167 -20,-22.5 -35,-39.167c-2.5,-2.5 -6.666,-2.083 -8.333,1.25c-52.5,101.25 -88.333,164.167 -104.167,192.5c-5,9.167 -8.75,18.75 -10.416,28.75c-3.334,21.667 -3.334,44.167 -0,65.834l0.416,3.75c4.584,27.916 15.417,54.583 32.084,77.916l347.5,485.417c17.5,24.583 47.083,37.917 77.083,34.167c34.583,-4.167 82.5,-17.084 131.667,-52.5c49.166,-35.417 76.25,-76.25 91.666,-107.5c13.334,-27.5 10.834,-60 -7.083,-85m-920.833,-867.084l10.416,2.5c3.75,0.834 6.25,4.584 6.25,8.334l-0.833,9.166c-0.417,2.917 1.25,5.834 3.75,7.5l11.25,6.667c18.333,37.083 35.833,71.25 51.667,102.5c1.666,2.917 5.416,3.75 7.916,1.25c26.25,-27.917 57.5,-61.25 94.584,-99.583c2.916,-3.334 3.333,-8.334 -0,-11.25c-18.75,-19.167 -38.334,-39.167 -60,-60.834l-2.917,-12.5c-0.417,-2.916 -2.917,-5 -5.833,-5.833l-8.75,-2.083c-3.75,-0.834 -6.25,-4.584 -5.834,-8.334l0.834,-10.833c0.416,-4.583 -2.917,-8.333 -7.5,-8.333c-10.417,-0.417 -30.834,2.5 -60,23.333c-28.75,20.833 -38.334,39.167 -41.25,49.167c-0.834,3.75 2.083,8.333 6.25,9.166" style="fill:#ffc000;fill-rule:nonzero;"/></g></g></svg>